<svg width="34" height="34" viewBox="0 0 34 34" fill="none" xmlns="http://www.w3.org/2000/svg">
<path fill-rule="evenodd" clip-rule="evenodd" d="M17 34C26.3888 34 34 26.3888 34 17C34 7.61117 26.3888 0 17 0C7.61117 0 0 7.61117 0 17C0 26.3888 7.61117 34 17 34ZM19.504 9.86099C20.8404 10.0927 22.1185 10.4972 23.3103 11.0463C23.3207 11.0508 23.3295 11.0582 23.3346 11.0687C25.4464 14.1874 26.4894 17.7054 26.0995 21.7554C26.098 21.7725 26.0892 21.7882 26.0751 21.7986C24.4757 22.9779 22.9263 23.6939 21.3983 24.1685C21.374 24.176 21.3475 24.167 21.3327 24.1462C20.9797 23.6529 20.659 23.1329 20.3782 22.5868C20.362 22.5548 20.3767 22.516 20.4099 22.5034C20.9192 22.3104 21.4035 22.0794 21.8693 21.806C21.9062 21.7844 21.9084 21.7315 21.8745 21.7062C21.7757 21.6324 21.6777 21.5549 21.5841 21.4775C21.5664 21.4633 21.5428 21.4603 21.5229 21.47C18.4986 22.8729 15.1854 22.8729 12.125 21.47C12.1051 21.4611 12.0815 21.4641 12.0646 21.4782C11.971 21.5557 11.8729 21.6324 11.7749 21.7062C11.741 21.7315 11.7439 21.7844 11.7808 21.806C12.2466 22.0742 12.7309 22.3104 13.2395 22.5041C13.2726 22.5168 13.2882 22.5548 13.2719 22.5868C12.997 23.1337 12.6764 23.6537 12.3167 24.1469C12.3012 24.167 12.2754 24.176 12.2511 24.1685C10.7305 23.6939 9.18109 22.9779 7.58159 21.7986C7.56833 21.7882 7.55874 21.7718 7.55728 21.7546C7.23149 18.2515 7.89562 14.7044 10.3199 11.0679C10.3258 11.0582 10.3346 11.0508 10.3449 11.0463C11.5376 10.4965 12.8157 10.0919 14.1513 9.86099C14.1756 9.85725 14.1999 9.86843 14.2124 9.89002C14.3775 10.1836 14.5662 10.5598 14.6938 10.8675C16.1016 10.6515 17.5316 10.6515 18.9689 10.8675C19.0964 10.5665 19.2785 10.1836 19.4428 9.89002C19.4554 9.86768 19.4797 9.8565 19.504 9.86099ZM12.0483 17.7292C12.0483 18.7723 12.8076 19.6216 13.7289 19.6216C14.665 19.6216 15.4095 18.7723 15.4095 17.7292C15.4242 16.6936 14.6724 15.8369 13.7289 15.8369C12.7928 15.8369 12.0483 16.6862 12.0483 17.7292ZM18.262 17.7292C18.262 18.7723 19.0212 19.6216 19.9426 19.6216C20.8861 19.6216 21.6231 18.7723 21.6231 17.7292C21.6379 16.6936 20.8861 15.8369 19.9426 15.8369C19.0065 15.8369 18.262 16.6862 18.262 17.7292Z" fill="#2C2E35"/>
</svg>
