<svg xmlns="http://www.w3.org/2000/svg" fill="none" viewBox="0 0 43 43"><g clip-path="url(#a)"><path fill="#fff" fill-rule="evenodd" d="M21.154 42.737c11.598 0 21-9.437 21-21.079 0-11.642-9.402-21.079-21-21.079s-21 9.438-21 21.08c0 11.641 9.402 21.078 21 21.078Zm3.093-29.93c1.65.286 3.23.788 4.702 1.469a.06.06 0 0 1 .03.028c2.609 3.867 3.897 8.229 3.415 13.25a.075.075 0 0 1-.03.054 19.033 19.033 0 0 1-5.777 2.939.073.073 0 0 1-.081-.028 15.51 15.51 0 0 1-1.18-1.933.075.075 0 0 1 .04-.104c.63-.24 1.227-.526 1.803-.864a.075.075 0 0 0 .006-.124 9.203 9.203 0 0 1-.358-.284.07.07 0 0 0-.076-.01c-3.736 1.74-7.829 1.74-11.61 0a.071.071 0 0 0-.074.011 9.793 9.793 0 0 1-.358.283.075.075 0 0 0 .008.123c.575.333 1.173.626 1.802.866.04.016.06.063.04.103-.34.678-.736 1.323-1.18 1.934a.074.074 0 0 1-.082.027 19.097 19.097 0 0 1-5.768-2.939.08.08 0 0 1-.03-.054c-.402-4.344.418-8.742 3.413-13.251a.068.068 0 0 1 .03-.027 18.883 18.883 0 0 1 4.703-1.47c.03-.004.06.01.075.036.204.364.437.83.595 1.212a17.45 17.45 0 0 1 5.28 0c.158-.373.383-.848.586-1.212a.071.071 0 0 1 .076-.036Zm-9.21 9.755c0 1.294.938 2.347 2.076 2.347 1.156 0 2.076-1.053 2.076-2.347.018-1.284-.91-2.346-2.076-2.346-1.156 0-2.076 1.053-2.076 2.346Zm7.676 0c0 1.294.938 2.347 2.076 2.347 1.165 0 2.076-1.053 2.076-2.347.018-1.284-.91-2.346-2.076-2.346-1.157 0-2.076 1.053-2.076 2.346Z" clip-rule="evenodd"/></g><defs><clipPath id="a"><path fill="#fff" d="M0 0h42v42.158H0z" transform="translate(.154 .579)"/></clipPath></defs></svg>