<svg xmlns="http://www.w3.org/2000/svg" fill="none" viewBox="0 0 34 34"><path fill="#2C2E35" fill-rule="evenodd" d="M17 34c9.389 0 17-7.611 17-17S26.389 0 17 0 0 7.611 0 17s7.611 17 17 17Zm2.504-24.139c1.336.232 2.614.636 3.806 1.185.01.005.02.012.025.023 2.111 3.118 3.154 6.636 2.764 10.686a.06.06 0 0 1-.024.044 15.432 15.432 0 0 1-4.677 2.37.06.06 0 0 1-.065-.023 12.516 12.516 0 0 1-.955-1.56.06.06 0 0 1 .032-.083c.51-.193.994-.424 1.46-.697a.06.06 0 0 0 .005-.1 7.535 7.535 0 0 1-.29-.229.057.057 0 0 0-.062-.007c-3.024 1.403-6.338 1.403-9.398 0a.058.058 0 0 0-.06.008 8.05 8.05 0 0 1-.29.228.06.06 0 0 0 .006.1c.466.268.95.504 1.458.698a.06.06 0 0 1 .033.083 11.133 11.133 0 0 1-.955 1.56.06.06 0 0 1-.066.022 15.485 15.485 0 0 1-4.67-2.37.064.064 0 0 1-.024-.044c-.326-3.503.339-7.05 2.763-10.687a.055.055 0 0 1 .025-.022c1.193-.55 2.47-.954 3.806-1.185a.06.06 0 0 1 .061.029c.165.294.354.67.482.977a14.183 14.183 0 0 1 4.275 0c.127-.3.31-.683.474-.977a.058.058 0 0 1 .061-.029Zm-7.456 7.868c0 1.043.76 1.893 1.68 1.893.937 0 1.681-.85 1.681-1.893.015-1.035-.737-1.892-1.68-1.892-.936 0-1.68.85-1.68 1.892Zm6.214 0c0 1.043.76 1.893 1.68 1.893.944 0 1.681-.85 1.681-1.893.015-1.035-.737-1.892-1.68-1.892-.937 0-1.681.85-1.681 1.892Z" clip-rule="evenodd"/></svg>