<svg width="43" height="43" viewBox="0 0 43 43" fill="none" xmlns="http://www.w3.org/2000/svg">
<g clip-path="url(#clip0_314_944)">
<path fill-rule="evenodd" clip-rule="evenodd" d="M21.1538 42.7375C32.7518 42.7375 42.1538 33.3 42.1538 21.6582C42.1538 10.0165 32.7518 0.578979 21.1538 0.578979C9.55584 0.578979 0.153809 10.0165 0.153809 21.6582C0.153809 33.3 9.55584 42.7375 21.1538 42.7375ZM24.247 12.8062C25.8978 13.0934 27.4766 13.5951 28.9489 14.2759C28.9617 14.2815 28.9726 14.2907 28.979 14.3036C31.5876 18.1707 32.876 22.5328 32.3944 27.5547C32.3925 27.5759 32.3816 27.5953 32.3643 27.6082C30.3885 29.0706 28.4745 29.9584 26.5871 30.5468C26.557 30.5561 26.5242 30.545 26.506 30.5191C26.0699 29.9076 25.6738 29.2628 25.3269 28.5856C25.3069 28.5459 25.3251 28.4979 25.366 28.4822C25.9952 28.2429 26.5934 27.9565 27.1689 27.6175C27.2144 27.5907 27.2171 27.5251 27.1753 27.4937C27.0533 27.4022 26.9321 27.3062 26.8165 27.2101C26.7947 27.1925 26.7655 27.1888 26.7409 27.2008C23.005 28.9403 18.9122 28.9403 15.1318 27.2008C15.1072 27.1898 15.078 27.1935 15.0571 27.211C14.9415 27.3071 14.8204 27.4022 14.6992 27.4937C14.6574 27.5251 14.661 27.5907 14.7066 27.6175C15.282 27.95 15.8802 28.2429 16.5085 28.4831C16.5494 28.4988 16.5686 28.5459 16.5485 28.5856C16.2089 29.2637 15.8128 29.9085 15.3685 30.5201C15.3494 30.545 15.3175 30.5561 15.2875 30.5468C13.4091 29.9584 11.4952 29.0706 9.5193 27.6082C9.50292 27.5953 9.49108 27.575 9.48927 27.5538C9.08683 23.21 9.90722 18.8118 12.9019 14.3027C12.9092 14.2907 12.9201 14.2815 12.9329 14.2759C14.4061 13.5941 15.9849 13.0925 17.6348 12.8062C17.6648 12.8015 17.6949 12.8154 17.7104 12.8422C17.9143 13.2062 18.1474 13.6727 18.3049 14.0542C20.044 13.7863 21.8104 13.7863 23.5859 14.0542C23.7434 13.681 23.9684 13.2062 24.1714 12.8422C24.1869 12.8145 24.217 12.8006 24.247 12.8062ZM15.0371 22.5624C15.0371 23.8558 15.9749 24.9089 17.1131 24.9089C18.2694 24.9089 19.189 23.8558 19.189 22.5624C19.2073 21.2783 18.2785 20.216 17.1131 20.216C15.9567 20.216 15.0371 21.2691 15.0371 22.5624ZM22.7128 22.5624C22.7128 23.8558 23.6506 24.9089 24.7887 24.9089C25.9542 24.9089 26.8648 23.8558 26.8648 22.5624C26.8829 21.2783 25.9542 20.216 24.7887 20.216C23.6324 20.216 22.7128 21.2691 22.7128 22.5624Z" fill="white"/>
</g>
<defs>
<clipPath id="clip0_314_944">
<rect width="42" height="42.1585" fill="white" transform="translate(0.153809 0.578979)"/>
</clipPath>
</defs>
</svg>
