<svg xmlns="http://www.w3.org/2000/svg" fill="none" viewBox="0 0 42 43"><g fill="#fff" clip-path="url(#a)"><path fill-rule="evenodd" d="M21 .579c-11.598 0-21 9.438-21 21.08 0 11.64 9.402 21.078 21 21.078S42 33.3 42 21.658C42 10.016 32.598.58 21 .58Zm-4.617 9.905c1.195-.055 1.576-.068 4.618-.068h-.003c3.042 0 3.422.013 4.617.068 1.193.055 2.007.244 2.721.522.737.287 1.36.671 1.983 1.297a5.519 5.519 0 0 1 1.293 1.991c.275.715.464 1.532.52 2.729.054 1.199.068 1.582.068 4.635 0 3.054-.014 3.436-.068 4.635-.056 1.196-.245 2.014-.52 2.729a5.52 5.52 0 0 1-1.293 1.99 5.478 5.478 0 0 1-1.982 1.298c-.713.279-1.528.468-2.72.523-1.195.054-1.575.068-4.617.068s-3.423-.014-4.618-.068c-1.192-.055-2.006-.244-2.719-.523a5.482 5.482 0 0 1-1.983-1.297 5.51 5.51 0 0 1-1.292-1.992c-.277-.715-.466-1.531-.52-2.728-.054-1.2-.068-1.581-.068-4.635 0-3.053.014-3.436.067-4.636.054-1.196.243-2.013.52-2.728.288-.74.67-1.367 1.293-1.991a5.482 5.482 0 0 1 1.985-1.297c.712-.278 1.526-.467 2.718-.522Z" clip-rule="evenodd"/><path fill-rule="evenodd" d="M19.996 12.442h1.005c2.99 0 3.345.01 4.526.065 1.092.05 1.685.233 2.08.387.522.204.895.447 1.287.84.392.394.634.769.838 1.293.153.396.336.991.385 2.087.054 1.185.066 1.541.066 4.542 0 3-.012 3.356-.066 4.541-.05 1.096-.232 1.691-.385 2.087a3.477 3.477 0 0 1-.838 1.292 3.462 3.462 0 0 1-1.288.84c-.394.155-.987.338-2.08.388-1.18.054-1.535.065-4.525.065s-3.345-.011-4.526-.065c-1.092-.05-1.684-.234-2.08-.388a3.469 3.469 0 0 1-1.287-.84 3.488 3.488 0 0 1-.839-1.293c-.153-.396-.336-.99-.385-2.087-.054-1.185-.065-1.54-.065-4.543 0-3.002.011-3.356.065-4.541.05-1.097.232-1.691.385-2.088.203-.524.447-.9.839-1.293a3.476 3.476 0 0 1 1.288-.841c.394-.155.987-.337 2.08-.388 1.033-.046 1.433-.06 3.52-.063v.003Zm6.984 1.867c-.742 0-1.344.603-1.344 1.348 0 .745.602 1.35 1.344 1.35.742 0 1.344-.605 1.344-1.35 0-.745-.602-1.349-1.344-1.349Zm-11.73 7.35c0-3.189 2.575-5.774 5.75-5.774 3.177 0 5.752 2.585 5.752 5.773 0 3.189-2.575 5.773-5.75 5.773-3.177 0-5.753-2.584-5.753-5.773Z" clip-rule="evenodd"/><path d="M21 17.91a3.74 3.74 0 0 1 3.734 3.748 3.74 3.74 0 0 1-3.733 3.748 3.74 3.74 0 0 1-3.733-3.748A3.74 3.74 0 0 1 21 17.911Z"/></g><defs><clipPath id="a"><path fill="#fff" d="M0 0h42v42.158H0z" transform="translate(0 .579)"/></clipPath></defs></svg>