<svg width="42" height="43" viewBox="0 0 42 43" fill="none" xmlns="http://www.w3.org/2000/svg">
<g clip-path="url(#clip0_314_940)">
<path fill-rule="evenodd" clip-rule="evenodd" d="M21 0.578979C9.40205 0.578979 0 10.0165 0 21.6582C0 33.2999 9.40205 42.7375 21 42.7375C32.5979 42.7375 42 33.2999 42 21.6582C42 10.0165 32.5979 0.578979 21 0.578979ZM16.3829 10.4839C17.5775 10.4293 17.9593 10.416 21.001 10.416H20.9976C24.0403 10.416 24.4205 10.4293 25.6153 10.4839C26.8076 10.5387 27.6219 10.7282 28.336 11.0062C29.0733 11.2931 29.6963 11.6772 30.3193 12.3026C30.9424 12.9275 31.325 13.5547 31.612 14.2941C31.8874 15.009 32.0764 15.8259 32.1324 17.0227C32.186 18.222 32.2 18.6051 32.2 21.6583C32.2 24.7116 32.186 25.0938 32.1324 26.293C32.0764 27.4894 31.8874 28.3065 31.612 29.0216C31.325 29.7608 30.9424 30.388 30.3193 31.0129C29.697 31.6383 29.0731 32.0233 28.3367 32.3105C27.624 32.5885 26.8092 32.778 25.6169 32.8328C24.4222 32.8874 24.0417 32.9008 20.9996 32.9008C17.9581 32.9008 17.5767 32.8874 16.3819 32.8328C15.1898 32.778 14.3757 32.5885 13.6631 32.3105C12.9269 32.0233 12.3021 31.6383 11.6798 31.0129C11.0569 30.388 10.6743 29.7608 10.388 29.0214C10.1112 28.3065 9.9225 27.4896 9.86764 26.2928C9.81356 25.0936 9.8 24.7116 9.8 21.6583C9.8 18.6051 9.814 18.2217 9.86746 17.0225C9.9211 15.8261 10.1101 15.009 10.3877 14.2938C10.6747 13.5547 11.0575 12.9275 11.6805 12.3026C12.303 11.6775 12.9279 11.2933 13.6645 11.0062C14.3767 10.7282 15.1905 10.5387 16.3829 10.4839Z" fill="white"/>
<path fill-rule="evenodd" clip-rule="evenodd" d="M19.9964 12.4419C20.1914 12.4416 20.4013 12.4417 20.6278 12.4418L21.0012 12.4419C23.9915 12.4419 24.346 12.4527 25.5269 12.5065C26.6189 12.5567 27.2116 12.7398 27.6064 12.8937C28.1291 13.0975 28.5016 13.3411 28.8935 13.7346C29.2855 14.1281 29.5281 14.5028 29.7316 15.0274C29.8849 15.4233 30.0676 16.0182 30.1173 17.1143C30.171 18.2995 30.1826 18.6554 30.1826 21.6557C30.1826 24.6561 30.171 25.0121 30.1173 26.1972C30.0674 27.2934 29.8849 27.8882 29.7316 28.2841C29.5286 28.8087 29.2855 29.1823 28.8935 29.5755C28.5015 29.969 28.1293 30.2127 27.6064 30.4164C27.2121 30.571 26.6189 30.7537 25.5269 30.8038C24.3462 30.8577 23.9915 30.8694 21.0012 30.8694C18.0105 30.8694 17.656 30.8577 16.4753 30.8038C15.3833 30.7532 14.7907 30.57 14.3956 30.4162C13.873 30.2124 13.4996 29.9688 13.1076 29.5753C12.7156 29.1818 12.473 28.808 12.2694 28.2831C12.1161 27.8874 11.9334 27.2924 11.8837 26.1963C11.8301 25.0112 11.8193 24.6551 11.8193 21.6529C11.8193 18.6508 11.8301 18.2967 11.8837 17.1115C11.9337 16.0154 12.1161 15.4205 12.2694 15.0242C12.4724 14.4995 12.7156 14.1248 13.1076 13.7313C13.4996 13.3379 13.873 13.0942 14.3956 12.89C14.7904 12.7354 15.3833 12.5527 16.4753 12.5023C17.5085 12.4555 17.909 12.4415 19.9964 12.4391V12.4419ZM26.9797 14.3086C26.2377 14.3086 25.6356 14.9122 25.6356 15.6573C25.6356 16.4021 26.2377 17.0063 26.9797 17.0063C27.7217 17.0063 28.3237 16.4021 28.3237 15.6573C28.3237 14.9125 27.7217 14.3082 26.9797 14.3082V14.3086ZM15.2494 21.6584C15.2494 18.47 17.8245 15.885 21.0009 15.8849C24.1773 15.8849 26.7519 18.4699 26.7519 21.6584C26.7519 24.8468 24.1775 27.4306 21.0012 27.4306C17.8247 27.4306 15.2494 24.8468 15.2494 21.6584Z" fill="white"/>
<path d="M21.0009 17.9109C23.0627 17.9109 24.7343 19.5886 24.7343 21.6583C24.7343 23.7279 23.0627 25.4058 21.0009 25.4058C18.939 25.4058 17.2676 23.7279 17.2676 21.6583C17.2676 19.5886 18.939 17.9109 21.0009 17.9109Z" fill="white"/>
</g>
<defs>
<clipPath id="clip0_314_940">
<rect width="42" height="42.1585" fill="white" transform="translate(0 0.578979)"/>
</clipPath>
</defs>
</svg>
