<svg xmlns="http://www.w3.org/2000/svg" fill="none" viewBox="0 0 34 34"><path fill="#2C2E35" fill-rule="evenodd" d="M17 0C7.611 0 0 7.611 0 17s7.611 17 17 17 17-7.611 17-17S26.389 0 17 0Zm-3.738 7.988c.967-.044 1.277-.055 3.739-.055h-.003c2.463 0 2.771.011 3.738.055.965.044 1.625.197 2.203.421a4.433 4.433 0 0 1 1.605 1.046 4.45 4.45 0 0 1 1.047 1.606c.223.576.376 1.235.42 2.2.044.968.056 1.277.056 3.74 0 2.461-.012 2.77-.055 3.737-.045.965-.198 1.624-.421 2.2a4.452 4.452 0 0 1-1.047 1.606 4.437 4.437 0 0 1-1.605 1.047c-.577.224-1.236.377-2.201.421-.968.044-1.276.055-3.738.055-2.463 0-2.771-.01-3.738-.055-.966-.044-1.625-.197-2.201-.421a4.44 4.44 0 0 1-1.606-1.047 4.442 4.442 0 0 1-1.046-1.606c-.224-.576-.377-1.235-.42-2.2-.045-.967-.056-1.276-.056-3.738 0-2.462.012-2.771.055-3.739.043-.964.196-1.623.421-2.2a4.45 4.45 0 0 1 1.047-1.606 4.44 4.44 0 0 1 1.606-1.046c.576-.224 1.235-.377 2.2-.42Z" clip-rule="evenodd"/><path fill="#2C2E35" fill-rule="evenodd" d="M16.188 9.567H17c2.42 0 2.708.009 3.664.052.884.04 1.364.188 1.683.313.423.164.725.36 1.042.678.317.317.514.62.678 1.042.125.32.272.8.313 1.683.043.956.053 1.243.053 3.663s-.01 2.707-.053 3.663c-.04.884-.188 1.363-.313 1.683a2.803 2.803 0 0 1-.678 1.041 2.804 2.804 0 0 1-1.042.678c-.32.125-.8.272-1.683.313-.956.043-1.243.053-3.664.053-2.421 0-2.708-.01-3.664-.053-.884-.041-1.364-.189-1.683-.313a2.807 2.807 0 0 1-1.043-.678 2.81 2.81 0 0 1-.679-1.042c-.124-.32-.272-.8-.312-1.683-.043-.956-.052-1.243-.052-3.664 0-2.421.009-2.707.052-3.663.04-.884.188-1.364.312-1.683.165-.423.362-.726.679-1.043.317-.317.62-.514 1.043-.678.32-.125.8-.272 1.683-.313.837-.038 1.16-.05 2.85-.051v.002Zm5.653 1.506a1.088 1.088 0 1 0 0 2.176 1.088 1.088 0 0 0 0-2.177ZM12.345 17a4.656 4.656 0 1 1 9.313 0 4.656 4.656 0 0 1-9.313 0Z" clip-rule="evenodd"/><path fill="#2C2E35" d="M17 13.978a3.022 3.022 0 1 1 0 6.044 3.022 3.022 0 0 1 0-6.044Z"/></svg>