<svg width="34" height="34" viewBox="0 0 34 34" fill="none" xmlns="http://www.w3.org/2000/svg">
<path fill-rule="evenodd" clip-rule="evenodd" d="M17 0C7.61118 0 0 7.61118 0 17C0 26.3888 7.61118 34 17 34C26.3888 34 34 26.3888 34 17C34 7.61118 26.3888 0 17 0ZM13.2623 7.98809C14.2294 7.9441 14.5385 7.93333 17.0008 7.93333H16.998C19.4612 7.93333 19.769 7.9441 20.7362 7.98809C21.7014 8.03229 22.3606 8.18515 22.9387 8.40933C23.5355 8.64075 24.0398 8.9505 24.5442 9.45483C25.0486 9.95881 25.3583 10.4646 25.5907 11.061C25.8136 11.6375 25.9666 12.2963 26.0119 13.2616C26.0553 14.2287 26.0667 14.5377 26.0667 17.0001C26.0667 19.4624 26.0553 19.7707 26.0119 20.7379C25.9666 21.7027 25.8136 22.3617 25.5907 22.9385C25.3583 23.5346 25.0486 24.0404 24.5442 24.5444C24.0404 25.0487 23.5354 25.3593 22.9392 25.5909C22.3623 25.8151 21.7027 25.9679 20.7375 26.0121C19.7704 26.0561 19.4623 26.0669 16.9997 26.0669C14.5375 26.0669 14.2287 26.0561 13.2616 26.0121C12.2965 25.9679 11.6375 25.8151 11.0606 25.5909C10.4646 25.3593 9.95881 25.0487 9.45505 24.5444C8.95085 24.0404 8.6411 23.5346 8.40933 22.9382C8.18529 22.3617 8.0325 21.7029 7.98809 20.7377C7.94431 19.7706 7.93333 19.4624 7.93333 17.0001C7.93333 14.5377 7.94467 14.2285 7.98795 13.2613C8.03137 12.2965 8.18437 11.6375 8.40912 11.0608C8.64145 10.4646 8.95128 9.95881 9.45561 9.45483C9.95959 8.95071 10.4654 8.64089 11.0618 8.40933C11.6383 8.18515 12.2971 8.03229 13.2623 7.98809Z" fill="#2C2E35"/>
<path fill-rule="evenodd" clip-rule="evenodd" d="M16.1876 9.56721C16.3455 9.567 16.5154 9.56707 16.6988 9.56714L17.001 9.56721C19.4218 9.56721 19.7088 9.57592 20.6647 9.61934C21.5487 9.65979 22.0285 9.80747 22.3481 9.93157C22.7712 10.0959 23.0728 10.2924 23.39 10.6097C23.7074 10.9271 23.9038 11.2293 24.0685 11.6524C24.1926 11.9716 24.3405 12.4514 24.3808 13.3354C24.4242 14.2912 24.4336 14.5783 24.4336 16.998C24.4336 19.4177 24.4242 19.7048 24.3808 20.6606C24.3403 21.5446 24.1926 22.0244 24.0685 22.3436C23.9042 22.7667 23.7074 23.068 23.39 23.3852C23.0727 23.7025 22.7714 23.899 22.3481 24.0633C22.0289 24.188 21.5487 24.3353 20.6647 24.3757C19.7089 24.4192 19.4218 24.4286 17.001 24.4286C14.58 24.4286 14.2931 24.4192 13.3372 24.3757C12.4532 24.3349 11.9735 24.1872 11.6537 24.0631C11.2306 23.8988 10.9283 23.7023 10.611 23.3849C10.2937 23.0676 10.0972 22.7662 9.93248 22.3429C9.80838 22.0237 9.66048 21.5439 9.62025 20.6599C9.57683 19.7041 9.56812 19.4169 9.56812 16.9957C9.56812 14.5746 9.57683 14.289 9.62025 13.3331C9.66069 12.4491 9.80838 11.9694 9.93248 11.6498C10.0968 11.2266 10.2937 10.9244 10.611 10.6071C10.9283 10.2898 11.2306 10.0933 11.6537 9.9286C11.9733 9.80393 12.4532 9.6566 13.3372 9.61594C14.1736 9.57819 14.4978 9.56685 16.1876 9.56494V9.56721ZM21.8408 11.0727C21.2401 11.0727 20.7527 11.5595 20.7527 12.1603C20.7527 12.761 21.2401 13.2483 21.8408 13.2483C22.4414 13.2483 22.9288 12.761 22.9288 12.1603C22.9288 11.5597 22.4414 11.0723 21.8408 11.0723V11.0727ZM12.3449 17.0001C12.3449 14.4288 14.4295 12.344 17.0008 12.3439C19.5722 12.3439 21.6564 14.4287 21.6564 17.0001C21.6564 19.5715 19.5723 21.6553 17.001 21.6553C14.4296 21.6553 12.3449 19.5715 12.3449 17.0001Z" fill="#2C2E35"/>
<path d="M17.0008 13.9778C18.6698 13.9778 20.023 15.3308 20.023 17C20.023 18.6691 18.6698 20.0223 17.0008 20.0223C15.3316 20.0223 13.9785 18.6691 13.9785 17C13.9785 15.3308 15.3316 13.9778 17.0008 13.9778Z" fill="#2C2E35"/>
</svg>
