<svg width="43" height="43" viewBox="0 0 43 43" fill="none" xmlns="http://www.w3.org/2000/svg">
<g clip-path="url(#clip0_314_946)">
<path fill-rule="evenodd" clip-rule="evenodd" d="M21.3076 0.578979C9.70967 0.578979 0.307617 10.0165 0.307617 21.6582C0.307617 33.2999 9.70967 42.7375 21.3076 42.7375C32.9056 42.7375 42.3076 33.2999 42.3076 21.6582C42.3076 10.0165 32.9056 0.578979 21.3076 0.578979ZM20.7228 18.4419L20.6787 17.7125C20.5465 15.822 21.7069 14.0953 23.5431 13.4255C24.2187 13.1873 25.3645 13.1575 26.1136 13.3659C26.4074 13.4552 26.9656 13.7529 27.3622 14.0209L28.082 14.5121L28.8751 14.2591C29.3159 14.125 29.9034 13.9018 30.1678 13.7529C30.4175 13.619 30.6378 13.5445 30.6378 13.5892C30.6378 13.8422 30.0944 14.7056 29.639 15.1819C29.0221 15.8518 29.1984 15.9113 30.4469 15.4647C31.1961 15.2117 31.2107 15.2117 31.0639 15.4945C30.9757 15.6433 30.5203 16.1644 30.0356 16.6407C29.213 17.4594 29.169 17.5487 29.169 18.2335C29.169 19.2903 28.6695 21.4934 28.1701 22.6991C27.2447 24.9617 25.2617 27.2987 23.2786 28.4746C20.4877 30.127 16.7714 30.5437 13.6426 29.5762C12.5997 29.2487 10.8076 28.4151 10.8076 28.2663C10.8076 28.2216 11.3511 28.162 12.0121 28.1472C13.3929 28.1174 14.7736 27.7304 15.9488 27.0456L16.742 26.5693L15.8313 26.2568C14.5386 25.8101 13.3782 24.783 13.0845 23.8155C12.9963 23.5029 13.0257 23.488 13.8482 23.488L14.7002 23.4731L13.9805 23.1308C13.1285 22.6991 12.35 21.9697 11.968 21.2254C11.6889 20.6895 11.3365 19.3349 11.4393 19.2308C11.4686 19.1862 11.7771 19.2754 12.1297 19.3945C13.1432 19.7666 13.2754 19.6773 12.6878 19.0521C11.5861 17.9209 11.2483 16.2387 11.7771 14.646L12.0268 13.9315L12.9963 14.8991C14.9794 16.8491 17.3149 18.0102 19.9883 18.3526L20.7228 18.4419Z" fill="white"/>
</g>
<defs>
<clipPath id="clip0_314_946">
<rect width="42" height="42.1585" fill="white" transform="translate(0.307617 0.578979)"/>
</clipPath>
</defs>
</svg>
