<svg width="34" height="34" viewBox="0 0 34 34" fill="none" xmlns="http://www.w3.org/2000/svg">
<path fill-rule="evenodd" clip-rule="evenodd" d="M17 0C7.61118 0 0 7.61118 0 17C0 26.3888 7.61118 34 17 34C26.3888 34 34 26.3888 34 17C34 7.61118 26.3888 0 17 0ZM16.5266 14.4061L16.4909 13.8178C16.3838 12.2932 17.3232 10.9006 18.8097 10.3604C19.3566 10.1683 20.2841 10.1443 20.8906 10.3124C21.1284 10.3844 21.5803 10.6245 21.9013 10.8406L22.484 11.2368L23.1261 11.0327C23.4829 10.9246 23.9585 10.7446 24.1725 10.6245C24.3747 10.5165 24.553 10.4564 24.553 10.4925C24.553 10.6965 24.1131 11.3928 23.7445 11.777C23.245 12.3172 23.3878 12.3652 24.3985 12.005C25.0049 11.801 25.0168 11.801 24.8979 12.0291C24.8265 12.1491 24.4579 12.5693 24.0655 12.9534C23.3996 13.6137 23.364 13.6858 23.364 14.238C23.364 15.0903 22.9596 16.867 22.5553 17.8394C21.8062 19.6642 20.2009 21.5489 18.5956 22.4973C16.3363 23.8299 13.3278 24.166 10.795 23.3857C9.95074 23.1216 8.5 22.4493 8.5 22.3293C8.5 22.2932 8.93995 22.2452 9.47509 22.2332C10.5928 22.2092 11.7106 21.8971 12.6619 21.3448L13.3041 20.9607L12.5668 20.7086C11.5203 20.3484 10.5809 19.5201 10.3432 18.7398C10.2718 18.4877 10.2956 18.4757 10.9615 18.4757L11.6512 18.4637L11.0685 18.1876C10.3788 17.8394 9.74858 17.2512 9.43939 16.6509C9.21343 16.2188 8.92812 15.1263 9.01135 15.0423C9.03508 15.0063 9.28483 15.0783 9.57022 15.1743C10.3907 15.4745 10.4977 15.4024 10.0221 14.8982C9.1302 13.9859 8.85672 12.6293 9.28483 11.3448L9.48699 10.7686L10.2718 11.5489C11.8771 13.1215 13.7678 14.0579 15.932 14.334L16.5266 14.4061Z" fill="#2C2E35"/>
</svg>
