<svg xmlns="http://www.w3.org/2000/svg" fill="none" viewBox="0 0 43 43"><g clip-path="url(#a)"><path fill="#fff" fill-rule="evenodd" d="M21.308.579c-11.598 0-21 9.438-21 21.08 0 11.64 9.402 21.078 21 21.078s21-9.437 21-21.079c0-11.642-9.402-21.079-21-21.079Zm-.585 17.863-.044-.73c-.132-1.89 1.028-3.617 2.864-4.287.676-.238 1.822-.268 2.57-.06.294.09.853.388 1.25.656l.719.491.793-.253c.44-.134 1.028-.357 1.293-.506.25-.134.47-.209.47-.164 0 .253-.544 1.117-.999 1.593-.617.67-.44.73.808.283.75-.253.764-.253.617.03-.088.148-.544.67-1.028 1.146-.823.818-.867.908-.867 1.593 0 1.056-.5 3.26-.999 4.465-.925 2.263-2.908 4.6-4.891 5.776-2.791 1.652-6.508 2.069-9.636 1.101-1.043-.327-2.835-1.16-2.835-1.31 0-.044.543-.104 1.204-.119a8.247 8.247 0 0 0 3.937-1.101l.793-.477-.91-.312c-1.293-.447-2.454-1.474-2.748-2.442-.088-.312-.058-.327.764-.327l.852-.015-.72-.342c-.851-.432-1.63-1.161-2.012-1.906-.28-.536-.632-1.89-.529-1.994.03-.045.338.044.69.163 1.014.373 1.146.283.559-.342-1.102-1.131-1.44-2.813-.91-4.406l.249-.715.97.968c1.982 1.95 4.318 3.111 6.991 3.454l.735.089Z" clip-rule="evenodd"/></g><defs><clipPath id="a"><path fill="#fff" d="M0 0h42v42.158H0z" transform="translate(.308 .579)"/></clipPath></defs></svg>