<svg xmlns="http://www.w3.org/2000/svg" fill="none" viewBox="0 0 34 34"><path fill="#2C2E35" fill-rule="evenodd" d="M17 0C7.611 0 0 7.611 0 17s7.611 17 17 17 17-7.611 17-17S26.389 0 17 0Zm-.473 14.406-.036-.588c-.107-1.525.832-2.917 2.319-3.458.547-.192 1.474-.216 2.08-.048.238.072.69.313 1.011.529l.583.396.642-.204c.357-.108.832-.288 1.046-.409.203-.107.381-.168.381-.132 0 .204-.44.9-.809 1.285-.499.54-.356.588.654.228.607-.204.619-.204.5.024-.072.12-.44.54-.832.924-.666.66-.702.733-.702 1.285 0 .852-.404 2.629-.809 3.601-.749 1.825-2.354 3.71-3.96 4.658-2.259 1.333-5.267 1.669-7.8.889-.844-.264-2.295-.937-2.295-1.057 0-.036.44-.084.975-.096a6.694 6.694 0 0 0 3.187-.888l.642-.384-.737-.252c-1.047-.36-1.986-1.189-2.224-1.97-.071-.251-.047-.263.618-.263l.69-.012-.582-.276c-.69-.349-1.32-.937-1.63-1.537-.226-.432-.51-1.525-.428-1.609.024-.036.274.036.56.132.82.3.927.228.451-.276-.892-.912-1.165-2.269-.737-3.553l.202-.576.785.78c1.605 1.572 3.496 2.509 5.66 2.785l.595.072Z" clip-rule="evenodd"/></svg>